<svg xmlns="http://www.w3.org/2000/svg" version="1.1" xmlns:xlink="http://www.w3.org/1999/xlink" xmlns:svgjs="http://svgjs.dev/svgjs" width="1920" height="1080" preserveAspectRatio="none" viewBox="0 0 1920 1080"><g mask="url(&quot;#SvgjsMask1141&quot;)" fill="none"><rect width="1920" height="1080" x="0" y="0" fill="rgba(255, 250, 238, 1)"></rect><path d="M -1016.3060055774163,22 C -824.31,139.4 -440.31,527.2 -56.30600557741623,609 C 327.69,690.8 519.69,368.4 903.6939944225837,431 C 1287.69,493.6 1660.43,957.8 1863.6939944225837,922 C 2066.96,886.2 1908.74,386 1920,252" stroke="rgba(215, 215, 215, 1)" stroke-width="2"></path><path d="M -734.3689402370899,763 C -542.37,628 -158.37,124.6 225.63105976291018,88 C 609.63,51.4 801.63,590.4 1185.6310597629101,580 C 1569.63,569.6 1998.76,20.6 2145.6310597629104,36 C 2292.5,51.4 1965.13,532.8 1920,657" stroke="rgba(215, 215, 215, 1)" stroke-width="2"></path><path d="M -644.2160418029828,628 C -452.22,538 -68.22,178.4 315.78395819701717,178 C 699.78,177.6 891.78,606.6 1275.7839581970172,626 C 1659.78,645.4 2106.94,227.2 2235.783958197017,275 C 2364.63,322.8 1983.16,747 1920,865" stroke="rgba(215, 215, 215, 1)" stroke-width="2"></path><path d="M -946.2706870433994,95 C -754.27,277.4 -370.27,947.2 13.729312956600594,1007 C 397.73,1066.8 589.73,415.2 973.7293129566006,394 C 1357.73,372.8 1744.48,974 1933.7293129566006,901 C 2122.98,828 1922.75,203.4 1920,29" stroke="rgba(215, 215, 215, 1)" stroke-width="2"></path></g><defs><mask id="SvgjsMask1141"><rect width="1920" height="1080" fill="#ffffff"></rect></mask></defs></svg>